<?xml version="1.0" encoding="utf-8"?>
<!-- Svg Vector Icons : http://www.onlinewebfonts.com/icon -->
<!DOCTYPE svg PUBLIC "-//W3C//DTD SVG 1.1//EN" "http://www.w3.org/Graphics/SVG/1.1/DTD/svg11.dtd">
<svg version="1.1" xmlns="http://www.w3.org/2000/svg" xmlns:xlink="http://www.w3.org/1999/xlink" x="0px" y="0px" viewBox="0 0 1000 1000" enable-background="new 0 0 1000 1000" xml:space="preserve">
<metadata> Svg Vector Icons : http://www.onlinewebfonts.com/icon </metadata>
<g><g transform="translate(0.000000,511.000000) scale(0.100000,-0.100000)"><path d="M884,3736V2658H492H100V502v-2156h392h392v-1470v-1470h196h196v1470v1470h392h392V502v2156h-392h-392v1078v1078h-196H884V3736z M1668,502v-1764h-588H492V502v1764h588h588V502z"/><path d="M4804,2560V306h-392h-392v-1764v-1764h392h392v-686v-686h196h196v686v686h392h392v1764V306h-392h-392v2254v2254h-196h-196V2560z M5588-1458v-1372h-588h-588v1372V-86h588h588V-1458z"/><path d="M8724,4128v-686h-392h-392V110v-3332h392h392v-686v-686h196h196v686v686h392h392V110v3332h-392h-392v686v686h-196h-196V4128z M9508,110v-2940h-588h-588V110v2940h588h588V110z"/></g></g>
</svg>